<svg xmlns="http://www.w3.org/2000/svg" height="960" width="960" viewBox="0 0 33 33" class="tr-ee-mCc2le-qrcode-white" xmlns:xlink="http://www.w3.org/1999/xlink"><path fill="transparent" d="M0,0 h33v33H0z" shape-rendering="crispEdges"/><path fill="#ffffff" d="M0 0h7v1H0zM11 0h2v1H11zM14 0h1v1H14zM19 0h1v1H19zM21 0h2v1H21zM24 0h1v1H24zM26,0 h7v1H26zM0 1h1v1H0zM6 1h1v1H6zM9 1h2v1H9zM12 1h3v1H12zM16 1h2v1H16zM20 1h1v1H20zM22 1h1v1H22zM24 1h1v1H24zM26 1h1v1H26zM32,1 h1v1H32zM0 2h1v1H0zM2 2h3v1H2zM6 2h1v1H6zM8 2h2v1H8zM11 2h3v1H11zM15 2h2v1H15zM18 2h4v1H18zM23 2h2v1H23zM26 2h1v1H26zM28 2h3v1H28zM32,2 h1v1H32zM0 3h1v1H0zM2 3h3v1H2zM6 3h1v1H6zM8 3h3v1H8zM12 3h3v1H12zM16 3h3v1H16zM21 3h1v1H21zM23 3h1v1H23zM26 3h1v1H26zM28 3h3v1H28zM32,3 h1v1H32zM0 4h1v1H0zM2 4h3v1H2zM6 4h1v1H6zM9 4h5v1H9zM15 4h4v1H15zM20 4h5v1H20zM26 4h1v1H26zM28 4h3v1H28zM32,4 h1v1H32zM0 5h1v1H0zM6 5h1v1H6zM15 5h2v1H15zM21 5h1v1H21zM23 5h1v1H23zM26 5h1v1H26zM32,5 h1v1H32zM0 6h7v1H0zM8 6h1v1H8zM10 6h1v1H10zM12 6h1v1H12zM14 6h1v1H14zM16 6h1v1H16zM18 6h1v1H18zM20 6h1v1H20zM22 6h1v1H22zM24 6h1v1H24zM26,6 h7v1H26zM9 7h1v1H9zM14 7h4v1H14zM20 7h1v1H20zM22 7h1v1H22zM24 7h1v1H24zM3 8h2v1H3zM6 8h2v1H6zM11 8h1v1H11zM15 8h3v1H15zM19 8h3v1H19zM24 8h1v1H24zM29 8h2v1H29zM5 9h1v1H5zM8 9h6v1H8zM15 9h2v1H15zM18 9h1v1H18zM21 9h3v1H21zM25 9h1v1H25zM27 9h2v1H27zM30 9h2v1H30zM0 10h8v1H0zM10 10h1v1H10zM13 10h1v1H13zM15 10h4v1H15zM20 10h1v1H20zM22 10h2v1H22zM25 10h3v1H25zM31,10 h2v1H31zM1 11h1v1H1zM7 11h1v1H7zM9 11h1v1H9zM22 11h2v1H22zM25 11h1v1H25zM27 11h4v1H27zM0 12h1v1H0zM2 12h3v1H2zM6 12h1v1H6zM9 12h2v1H9zM26 12h3v1H26zM32,12 h1v1H32zM1 13h2v1H1zM5 13h1v1H5zM7 13h1v1H7zM10 13h1v1H10zM25 13h1v1H25zM27 13h3v1H27zM31 13h1v1H31zM1 14h2v1H1zM4 14h1v1H4zM6 14h5v1H6zM27 14h1v1H27zM0 15h1v1H0zM2 15h3v1H2zM23 15h1v1H23zM25 15h3v1H25zM29 15h1v1H29zM1 16h1v1H1zM3 16h2v1H3zM6 16h2v1H6zM9 16h1v1H9zM25 16h3v1H25zM29 16h2v1H29zM1 17h2v1H1zM4 17h1v1H4zM8 17h1v1H8zM22 17h1v1H22zM24 17h2v1H24zM27 17h3v1H27zM0 18h3v1H0zM4 18h1v1H4zM6 18h1v1H6zM8 18h3v1H8zM23 18h1v1H23zM25 18h2v1H25zM28,18 h5v1H28zM2 19h1v1H2zM4 19h1v1H4zM8 19h1v1H8zM10 19h1v1H10zM22 19h3v1H22zM26 19h2v1H26zM29 19h2v1H29zM3 20h1v1H3zM5 20h6v1H5zM24 20h2v1H24zM27 20h1v1H27zM29 20h1v1H29zM31,20 h2v1H31zM0 21h1v1H0zM2 21h4v1H2zM9 21h1v1H9zM22 21h1v1H22zM25 21h4v1H25zM30,21 h3v1H30zM0 22h1v1H0zM2 22h6v1H2zM11 22h1v1H11zM16 22h1v1H16zM18 22h5v1H18zM24 22h1v1H24zM26 22h4v1H26zM31,22 h2v1H31zM0 23h1v1H0zM2 23h1v1H2zM5 23h1v1H5zM8 23h1v1H8zM11 23h1v1H11zM13 23h5v1H13zM19 23h1v1H19zM22 23h1v1H22zM27 23h1v1H27zM29,23 h4v1H29zM0 24h3v1H0zM6 24h2v1H6zM11 24h1v1H11zM13 24h2v1H13zM16 24h2v1H16zM20 24h1v1H20zM24 24h6v1H24zM32,24 h1v1H32zM8 25h2v1H8zM11 25h2v1H11zM14 25h2v1H14zM17 25h4v1H17zM24 25h1v1H24zM28 25h3v1H28zM0 26h7v1H0zM8 26h1v1H8zM10 26h6v1H10zM20 26h5v1H20zM26 26h1v1H26zM28 26h1v1H28zM30 26h1v1H30zM0 27h1v1H0zM6 27h1v1H6zM12 27h1v1H12zM15 27h1v1H15zM18 27h2v1H18zM23 27h2v1H23zM28 27h4v1H28zM0 28h1v1H0zM2 28h3v1H2zM6 28h1v1H6zM8 28h3v1H8zM14 28h4v1H14zM19 28h3v1H19zM23 28h7v1H23zM31 28h1v1H31zM0 29h1v1H0zM2 29h3v1H2zM6 29h1v1H6zM8 29h1v1H8zM10 29h2v1H10zM14 29h3v1H14zM18 29h1v1H18zM21 29h1v1H21zM25 29h1v1H25zM27 29h1v1H27zM29 29h3v1H29zM0 30h1v1H0zM2 30h3v1H2zM6 30h1v1H6zM10 30h1v1H10zM13 30h6v1H13zM24 30h1v1H24zM28 30h1v1H28zM30,30 h3v1H30zM0 31h1v1H0zM6 31h1v1H6zM10 31h2v1H10zM15 31h1v1H15zM17 31h1v1H17zM19 31h1v1H19zM21 31h1v1H21zM26 31h1v1H26zM30,31 h3v1H30zM0 32h7v1H0zM9 32h1v1H9zM11 32h2v1H11zM16 32h1v1H16zM21 32h1v1H21zM24 32h1v1H24zM28 32h3v1H28z" shape-rendering="crispEdges"/><image xlink:href="data:image/svg+xml,%3Csvg xmlns='http://www.w3.org/2000/svg' width='2000' height='2000' viewBox='0 0 2000 2000' fill='none'%3E%3Cpath d='M1113.74 600.049L1372.44 335.418L1523.55 488.182L1251.55 745.595H1633.55V958.503H1249.14L1522.34 1223.13L1371.23 1372.29L1000.11 1000.6L628.994 1372.29L479.097 1223.13L752.297 958.503H367.882V745.595H749.88L477.888 488.182L627.785 335.418L886.48 600.049V223.551H1111.33V600.049H1113.74ZM888.898 1264.03H1113.74V1769.24H888.898V1264.03Z' fill='%23ffffff'/%3E%3C/svg%3E" height="9.625" width="9.625" x="11.6875" y="11.6875" preserveAspectRatio="none"/></svg>